<svg xmlns="http://www.w3.org/2000/svg" xmlns:xlink="http://www.w3.org/1999/xlink" version="1.1" x="0px" y="0px" viewBox="0 0 100 125" enable-background="new 0 0 100 100" xml:space="preserve"><g><path d="M90.388,100c0-1.621-1.273-2.926-2.899-2.97l-0.973-0.027v-1.945l0.973-0.049c1.626-0.044,2.899-1.349,2.899-2.969   s-1.273-2.925-2.899-2.969l-0.973-0.027v-1.945l0.973-0.049c1.626-0.044,2.899-1.349,2.899-2.97c0-1.62-1.273-2.925-2.899-2.969   l-0.973-0.027v-1.945l0.973-0.049c1.626-0.044,2.899-1.349,2.899-2.969c0-1.621-1.273-2.926-2.899-2.97l-0.973-0.027v-1.945   l0.973-0.049c1.626-0.044,2.899-1.349,2.899-2.969s-1.273-2.925-2.899-2.969l-0.973-0.027V63.22l0.973-0.049   c1.626-0.044,2.899-1.349,2.899-2.97c0-1.62-1.273-2.925-2.899-2.969l-0.973-0.027v-1.749l0.753-0.287   c1.561-0.399,2.518-1.939,2.178-3.508c-0.328-1.509-1.796-2.523-3.33-2.3l-0.777,0.11l-0.564-1.411l0.528-0.551   c1.231-1.004,1.463-2.788,0.526-4.062c-0.921-1.253-2.676-1.576-3.997-0.731l-0.936,0.598l-0.395-0.789l-0.51-0.392l0.429-0.758   c0.802-1.412,0.315-3.226-1.084-4.043c-1.403-0.82-3.229-0.349-4.063,1.053l-2.168,3.646l0.312-4.23   c0.118-1.612-1.092-3.042-2.698-3.186c-1.6-0.142-3.053,1.045-3.225,2.652l-0.089,0.835l-1.586,0.106l-0.303-0.697   c-0.554-1.508-2.178-2.308-3.697-1.815c-1.533,0.492-2.386,2.097-1.942,3.65l0.993,3.482l-2.64-2.479   c-1.169-1.098-2.977-1.082-4.117,0.032c-1.138,1.112-1.192,2.917-0.124,4.109l0.517,0.577l-1.213,1.82l-0.884-1.079   c-0.585-0.779-1.467-1.225-2.423-1.225c-0.01,0-0.019,0-0.027,0c-0.97,0.009-1.887,0.496-2.452,1.302l-0.873,1.245l-1.203-1.956   l0.513-0.595c1.135-1.176,1.11-3.059-0.056-4.199c-1.14-1.115-2.947-1.128-4.116-0.033l-2.637,2.478l0.99-3.479   c0.442-1.555-0.411-3.158-1.942-3.65c-1.538-0.492-3.158,0.313-3.706,1.831l-0.287,0.797l-1.572-0.286l-0.106-0.753   c-0.164-1.617-1.597-2.81-3.228-2.67c-1.621,0.146-2.807,1.534-2.698,3.162l0.053,0.806l-1.511,0.433l-0.415-0.648   c-0.838-1.387-2.654-1.85-4.05-1.035c-1.375,0.804-1.867,2.543-1.119,3.959l0.364,0.688l-1.127,1.015l-0.69-0.324   c-1.327-0.792-3.011-0.457-3.918,0.776c-0.913,1.241-0.726,2.951,0.436,3.979l0.547,0.485l-0.661,1.407l-0.732,0.028   c-1.515-0.163-2.887,0.844-3.206,2.313c-0.33,1.519,0.551,3.007,2.048,3.463l0.709,0.216v1.842l-0.93,0.065   c-1.553,0.11-2.77,1.408-2.77,2.954c0,1.547,1.217,2.845,2.77,2.955l0.93,0.065v1.863l-0.93,0.122   c-1.553,0.11-2.77,1.408-2.77,2.954s1.217,2.844,2.77,2.954l0.93,0.065v1.863l-0.93,0.122c-1.553,0.11-2.77,1.408-2.77,2.955   c0,1.546,1.217,2.844,2.77,2.954l0.93,0.065v1.863l-0.93,0.122c-1.553,0.11-2.77,1.408-2.77,2.954c0,1.547,1.217,2.845,2.77,2.955   l0.93,0.065v1.863l-0.93,0.122c-1.553,0.11-2.77,1.408-2.77,2.954s1.217,2.844,2.77,2.954l0.93,0.065v1.863l-0.93,0.122   c-1.553,0.11-2.77,1.408-2.77,2.955h-2c0-1.616,0.791-3.07,2.016-3.98c-1.225-0.91-2.016-2.363-2.016-3.979   s0.791-3.069,2.016-3.979c-1.225-0.91-2.016-2.364-2.016-3.98s0.791-3.069,2.016-3.979c-1.225-0.91-2.016-2.363-2.016-3.979   s0.791-3.07,2.016-3.98c-1.225-0.91-2.016-2.363-2.016-3.979s0.791-3.069,2.016-3.979c-1.225-0.91-2.016-2.364-2.016-3.98   c0-1.804,0.985-3.404,2.459-4.273c-1.255-1.155-1.858-2.91-1.472-4.691c0.403-1.857,1.813-3.263,3.563-3.733   c-0.863-1.638-0.761-3.664,0.398-5.24c1.105-1.505,2.898-2.211,4.647-1.978c-0.146-1.847,0.748-3.687,2.445-4.679   c1.681-0.98,3.724-0.853,5.259,0.156c0.66-1.707,2.236-2.964,4.192-3.139c1.929-0.173,3.72,0.8,4.682,2.356   c1.277-1.261,3.184-1.776,5.008-1.188c1.871,0.602,3.138,2.19,3.399,4.015c1.725-0.597,3.703-0.213,5.093,1.146   c1.051,1.027,1.547,2.415,1.485,3.784c0.379-0.096,0.771-0.147,1.169-0.151c0.443,0.004,0.872,0.049,1.286,0.153   c-0.066-1.369,0.434-2.755,1.488-3.786c1.389-1.357,3.365-1.741,5.094-1.146c0.261-1.823,1.527-3.413,3.398-4.015   c1.818-0.585,3.729-0.072,5.008,1.191c0.963-1.559,2.755-2.537,4.683-2.36c1.923,0.173,3.506,1.444,4.18,3.142   c1.534-1.017,3.58-1.146,5.27-0.159c1.688,0.986,2.582,2.841,2.444,4.684c1.746-0.231,3.55,0.479,4.649,1.974   c1.156,1.572,1.251,3.608,0.396,5.242c1.741,0.475,3.161,1.879,3.564,3.73c0.384,1.772-0.22,3.523-1.455,4.679   c1.469,0.862,2.441,2.453,2.441,4.286c0,1.634-0.772,3.076-1.98,3.98c1.208,0.904,1.98,2.346,1.98,3.979s-0.772,3.075-1.98,3.979   c1.208,0.904,1.98,2.347,1.98,3.98s-0.772,3.075-1.98,3.979c1.208,0.904,1.98,2.346,1.98,3.979s-0.772,3.076-1.98,3.98   c1.208,0.904,1.98,2.346,1.98,3.979s-0.772,3.075-1.98,3.979c1.208,0.904,1.98,2.347,1.98,3.98H90.388z"/></g><path d="M57.754,78.535c-0.33,0-0.598,0.268-0.598,0.597c0,1.809-1.471,3.28-3.279,3.28s-3.279-1.472-3.279-3.28v-9.939  c2.422-0.367,4.299-2.853,4.299-3.979c0-1.217-2.191-2.203-4.896-2.203s-4.896,0.986-4.896,2.203c0,1.127,1.877,3.613,4.299,3.979  v9.939c0,1.809-1.471,3.28-3.279,3.28s-3.279-1.472-3.279-3.28c0-0.329-0.268-0.597-0.598-0.597s-0.596,0.268-0.596,0.597  c0,2.467,2.006,4.474,4.473,4.474c1.668,0,3.107-0.928,3.877-2.283c0.77,1.355,2.211,2.283,3.877,2.283  c2.467,0,4.473-2.007,4.473-4.474C58.35,78.803,58.082,78.535,57.754,78.535z"/><g><path d="M32.054,59.214c0.116-0.106,0.235-0.208,0.347-0.324c0.166-0.165,0.254-0.382,0.254-0.617   c-0.005-0.236-0.098-0.453-0.264-0.614c-0.327-0.328-0.905-0.323-1.231,0.005c-1.154,1.172-2.699,1.822-4.339,1.837   c-1.665-0.011-3.216-0.642-4.374-1.782c-0.328-0.326-0.904-0.323-1.232,0.01c-0.337,0.341-0.331,0.895,0.009,1.231   c0.097,0.098,0.209,0.186,0.31,0.281l-2.127,2.128c-0.336,0.337-0.336,0.891,0,1.231c0.166,0.167,0.388,0.255,0.617,0.255   c0.236,0,0.453-0.088,0.619-0.255l2.336-2.334c0.908,0.503,1.909,0.816,2.957,0.927v2.802c0,0.479,0.393,0.872,0.873,0.872   c0.479,0,0.872-0.393,0.872-0.872v-2.806c1.042-0.12,2.034-0.438,2.938-0.946l2.358,2.357c0.161,0.167,0.383,0.255,0.614,0.255   c0.235,0,0.452-0.088,0.618-0.255c0.337-0.341,0.337-0.895,0-1.231L32.054,59.214z"/><path d="M80.591,61.368l-2.155-2.154c0.12-0.106,0.24-0.208,0.351-0.324c0.161-0.165,0.254-0.382,0.254-0.617   c-0.005-0.231-0.097-0.453-0.264-0.614c-0.332-0.328-0.904-0.323-1.231,0.009c-1.158,1.168-2.699,1.818-4.343,1.833   c-1.661-0.011-3.216-0.642-4.37-1.782c-0.331-0.326-0.904-0.323-1.231,0.01c-0.337,0.341-0.337,0.891,0.004,1.231   c0.102,0.098,0.209,0.186,0.314,0.281l-2.128,2.128c-0.337,0.337-0.337,0.891,0,1.231c0.166,0.167,0.388,0.255,0.619,0.255   c0.23,0,0.452-0.088,0.613-0.255l2.335-2.334c0.914,0.503,1.916,0.816,2.964,0.927v2.802c0,0.479,0.388,0.872,0.871,0.872   c0.479,0,0.872-0.393,0.872-0.872v-2.806c1.039-0.12,2.035-0.438,2.94-0.946l2.353,2.357c0.166,0.167,0.384,0.255,0.619,0.255   c0.229,0,0.451-0.088,0.613-0.255C80.933,62.259,80.933,61.705,80.591,61.368z"/></g><g><path d="M50.001,93.524c-7.981,0-14.475-6.492-14.475-14.473c0-7.812,6.265-26.936,14.475-26.936   c8.209,0,14.473,19.124,14.473,26.936C64.474,87.032,57.981,93.524,50.001,93.524z M50.001,53.616   c-6.702,0-12.975,17.49-12.975,25.436c0,7.153,5.82,12.973,12.975,12.973c7.153,0,12.973-5.819,12.973-12.973   C62.974,71.106,56.702,53.616,50.001,53.616z"/></g><text x="0" y="115" fill="#000000" font-size="5px" font-weight="bold" font-family="'Helvetica Neue', Helvetica, Arial-Unicode, Arial, Sans-serif">Created by Fabiana Antonioli</text><text x="0" y="120" fill="#000000" font-size="5px" font-weight="bold" font-family="'Helvetica Neue', Helvetica, Arial-Unicode, Arial, Sans-serif">from the Noun Project</text></svg>